<svg width="25" height="24" viewBox="0 0 25 24" fill="none" xmlns="http://www.w3.org/2000/svg">
<path d="M12.5 0.496094C18.7846 0.496094 23.8923 5.53936 23.9983 11.8009V11.9996C23.9983 17.809 19.6933 22.6124 14.1011 23.3918C13.578 23.4644 13.0426 23.5023 12.4992 23.5023C11.8716 23.5023 11.2559 23.4523 10.6567 23.3556L10.6566 23.3556C5.18188 22.4739 1 17.7244 1 11.9996C1 5.64644 6.14904 0.496094 12.5 0.496094Z" stroke="#2C2C2C"/>
<path d="M14.1708 9.63428V12.2491H17.4046L16.8925 15.7715H14.1708V23.8868C13.6251 23.9625 13.0668 24.002 12.5001 24.002C11.846 24.002 11.2036 23.9499 10.578 23.849V15.7715H7.5957V12.2491H10.578V9.04975C10.578 7.06486 12.1865 5.45508 14.1717 5.45508V5.45676C14.1775 5.45676 14.1826 5.45508 14.1885 5.45508H17.4054V8.50138H15.3034C14.6787 8.50138 14.1717 9.00854 14.1717 9.63344L14.1708 9.63428Z" fill="#2C2C2C"/>
</svg>
