<svg width="40" height="40" viewBox="0 0 40 40" fill="none" xmlns="http://www.w3.org/2000/svg">
<circle cx="20" cy="20" r="19.5" stroke="#E6D8CC"/>
<g clip-path="url(#clip0_131_945)">
<path d="M19.9801 11.8019C22.6455 11.8019 22.9584 11.8138 24.0118 11.8613C24.9861 11.9049 25.5128 12.0673 25.8653 12.2059C26.3326 12.3881 26.6653 12.6019 27.0138 12.9504C27.3623 13.299 27.5801 13.6316 27.7584 14.099C27.893 14.4514 28.0594 14.9782 28.1029 15.9524C28.1504 17.0059 28.1623 17.3188 28.1623 19.9841C28.1623 22.6495 28.1504 22.9623 28.1029 24.0158C28.0594 24.99 27.897 25.5168 27.7584 25.8693C27.5762 26.3366 27.3623 26.6693 27.0138 27.0178C26.6653 27.3663 26.3326 27.5841 25.8653 27.7623C25.5128 27.897 24.9861 28.0633 24.0118 28.1069C22.9584 28.1544 22.6455 28.1663 19.9801 28.1663C17.3148 28.1663 17.0019 28.1544 15.9485 28.1069C14.9742 28.0633 14.4475 27.9009 14.095 27.7623C13.6277 27.5801 13.295 27.3663 12.9465 27.0178C12.598 26.6693 12.3801 26.3366 12.2019 25.8693C12.0673 25.5168 11.9009 24.99 11.8574 24.0158C11.8098 22.9623 11.798 22.6495 11.798 19.9841C11.798 17.3188 11.8098 17.0059 11.8574 15.9524C11.9009 14.9782 12.0633 14.4514 12.2019 14.099C12.3841 13.6316 12.598 13.299 12.9465 12.9504C13.295 12.6019 13.6277 12.3841 14.095 12.2059C14.4475 12.0712 14.9742 11.9049 15.9485 11.8613C17.0019 11.8098 17.3148 11.8019 19.9801 11.8019ZM19.9801 10.0039C17.2712 10.0039 16.9306 10.0158 15.8653 10.0633C14.8039 10.1108 14.0792 10.2811 13.4455 10.5267C12.7881 10.7801 12.2336 11.1247 11.6792 11.6792C11.1247 12.2336 10.7841 12.792 10.5267 13.4455C10.2811 14.0792 10.1108 14.8039 10.0633 15.8693C10.0158 16.9306 10.0039 17.2712 10.0039 19.9801C10.0039 22.6891 10.0158 23.0297 10.0633 24.095C10.1108 25.1564 10.2811 25.8811 10.5267 26.5188C10.7801 27.1762 11.1247 27.7306 11.6792 28.2851C12.2336 28.8396 12.792 29.1801 13.4455 29.4376C14.0792 29.6831 14.8039 29.8534 15.8693 29.9009C16.9346 29.9485 17.2712 29.9603 19.9841 29.9603C22.697 29.9603 23.0336 29.9485 24.099 29.9009C25.1603 29.8534 25.8851 29.6831 26.5227 29.4376C27.1801 29.1841 27.7346 28.8396 28.2891 28.2851C28.8435 27.7306 29.1841 27.1722 29.4415 26.5188C29.6871 25.8851 29.8574 25.1603 29.9049 24.095C29.9524 23.0297 29.9643 22.693 29.9643 19.9801C29.9643 17.2673 29.9524 16.9306 29.9049 15.8653C29.8574 14.8039 29.6871 14.0792 29.4415 13.4415C29.1881 12.7841 28.8435 12.2296 28.2891 11.6752C27.7346 11.1207 27.1762 10.7801 26.5227 10.5227C25.8891 10.2772 25.1643 10.1069 24.099 10.0594C23.0296 10.0158 22.6891 10.0039 19.9801 10.0039Z" fill="url(#paint0_linear_131_945)"/>
<path d="M19.9801 11.8019C22.6455 11.8019 22.9584 11.8138 24.0118 11.8613C24.9861 11.9049 25.5128 12.0673 25.8653 12.2059C26.3326 12.3881 26.6653 12.6019 27.0138 12.9504C27.3623 13.299 27.5801 13.6316 27.7584 14.099C27.893 14.4514 28.0594 14.9782 28.1029 15.9524C28.1504 17.0059 28.1623 17.3188 28.1623 19.9841C28.1623 22.6495 28.1504 22.9623 28.1029 24.0158C28.0594 24.99 27.897 25.5168 27.7584 25.8693C27.5762 26.3366 27.3623 26.6693 27.0138 27.0178C26.6653 27.3663 26.3326 27.5841 25.8653 27.7623C25.5128 27.897 24.9861 28.0633 24.0118 28.1069C22.9584 28.1544 22.6455 28.1663 19.9801 28.1663C17.3148 28.1663 17.0019 28.1544 15.9485 28.1069C14.9742 28.0633 14.4475 27.9009 14.095 27.7623C13.6277 27.5801 13.295 27.3663 12.9465 27.0178C12.598 26.6693 12.3801 26.3366 12.2019 25.8693C12.0673 25.5168 11.9009 24.99 11.8574 24.0158C11.8098 22.9623 11.798 22.6495 11.798 19.9841C11.798 17.3188 11.8098 17.0059 11.8574 15.9524C11.9009 14.9782 12.0633 14.4514 12.2019 14.099C12.3841 13.6316 12.598 13.299 12.9465 12.9504C13.295 12.6019 13.6277 12.3841 14.095 12.2059C14.4475 12.0712 14.9742 11.9049 15.9485 11.8613C17.0019 11.8098 17.3148 11.8019 19.9801 11.8019ZM19.9801 10.0039C17.2712 10.0039 16.9306 10.0158 15.8653 10.0633C14.8039 10.1108 14.0792 10.2811 13.4455 10.5267C12.7881 10.7801 12.2336 11.1247 11.6792 11.6792C11.1247 12.2336 10.7841 12.792 10.5267 13.4455C10.2811 14.0792 10.1108 14.8039 10.0633 15.8693C10.0158 16.9306 10.0039 17.2712 10.0039 19.9801C10.0039 22.6891 10.0158 23.0297 10.0633 24.095C10.1108 25.1564 10.2811 25.8811 10.5267 26.5188C10.7801 27.1762 11.1247 27.7306 11.6792 28.2851C12.2336 28.8396 12.792 29.1801 13.4455 29.4376C14.0792 29.6831 14.8039 29.8534 15.8693 29.9009C16.9346 29.9485 17.2712 29.9603 19.9841 29.9603C22.697 29.9603 23.0336 29.9485 24.099 29.9009C25.1603 29.8534 25.8851 29.6831 26.5227 29.4376C27.1801 29.1841 27.7346 28.8396 28.2891 28.2851C28.8435 27.7306 29.1841 27.1722 29.4415 26.5188C29.6871 25.8851 29.8574 25.1603 29.9049 24.095C29.9524 23.0297 29.9643 22.693 29.9643 19.9801C29.9643 17.2673 29.9524 16.9306 29.9049 15.8653C29.8574 14.8039 29.6871 14.0792 29.4415 13.4415C29.1881 12.7841 28.8435 12.2296 28.2891 11.6752C27.7346 11.1207 27.1762 10.7801 26.5227 10.5227C25.8891 10.2772 25.1643 10.1069 24.099 10.0594C23.0296 10.0158 22.6891 10.0039 19.9801 10.0039Z" fill="url(#paint1_linear_131_945)" style="mix-blend-mode:overlay"/>
<path d="M19.9801 11.8019C22.6455 11.8019 22.9584 11.8138 24.0118 11.8613C24.9861 11.9049 25.5128 12.0673 25.8653 12.2059C26.3326 12.3881 26.6653 12.6019 27.0138 12.9504C27.3623 13.299 27.5801 13.6316 27.7584 14.099C27.893 14.4514 28.0594 14.9782 28.1029 15.9524C28.1504 17.0059 28.1623 17.3188 28.1623 19.9841C28.1623 22.6495 28.1504 22.9623 28.1029 24.0158C28.0594 24.99 27.897 25.5168 27.7584 25.8693C27.5762 26.3366 27.3623 26.6693 27.0138 27.0178C26.6653 27.3663 26.3326 27.5841 25.8653 27.7623C25.5128 27.897 24.9861 28.0633 24.0118 28.1069C22.9584 28.1544 22.6455 28.1663 19.9801 28.1663C17.3148 28.1663 17.0019 28.1544 15.9485 28.1069C14.9742 28.0633 14.4475 27.9009 14.095 27.7623C13.6277 27.5801 13.295 27.3663 12.9465 27.0178C12.598 26.6693 12.3801 26.3366 12.2019 25.8693C12.0673 25.5168 11.9009 24.99 11.8574 24.0158C11.8098 22.9623 11.798 22.6495 11.798 19.9841C11.798 17.3188 11.8098 17.0059 11.8574 15.9524C11.9009 14.9782 12.0633 14.4514 12.2019 14.099C12.3841 13.6316 12.598 13.299 12.9465 12.9504C13.295 12.6019 13.6277 12.3841 14.095 12.2059C14.4475 12.0712 14.9742 11.9049 15.9485 11.8613C17.0019 11.8098 17.3148 11.8019 19.9801 11.8019ZM19.9801 10.0039C17.2712 10.0039 16.9306 10.0158 15.8653 10.0633C14.8039 10.1108 14.0792 10.2811 13.4455 10.5267C12.7881 10.7801 12.2336 11.1247 11.6792 11.6792C11.1247 12.2336 10.7841 12.792 10.5267 13.4455C10.2811 14.0792 10.1108 14.8039 10.0633 15.8693C10.0158 16.9306 10.0039 17.2712 10.0039 19.9801C10.0039 22.6891 10.0158 23.0297 10.0633 24.095C10.1108 25.1564 10.2811 25.8811 10.5267 26.5188C10.7801 27.1762 11.1247 27.7306 11.6792 28.2851C12.2336 28.8396 12.792 29.1801 13.4455 29.4376C14.0792 29.6831 14.8039 29.8534 15.8693 29.9009C16.9346 29.9485 17.2712 29.9603 19.9841 29.9603C22.697 29.9603 23.0336 29.9485 24.099 29.9009C25.1603 29.8534 25.8851 29.6831 26.5227 29.4376C27.1801 29.1841 27.7346 28.8396 28.2891 28.2851C28.8435 27.7306 29.1841 27.1722 29.4415 26.5188C29.6871 25.8851 29.8574 25.1603 29.9049 24.095C29.9524 23.0297 29.9643 22.693 29.9643 19.9801C29.9643 17.2673 29.9524 16.9306 29.9049 15.8653C29.8574 14.8039 29.6871 14.0792 29.4415 13.4415C29.1881 12.7841 28.8435 12.2296 28.2891 11.6752C27.7346 11.1207 27.1762 10.7801 26.5227 10.5227C25.8891 10.2772 25.1643 10.1069 24.099 10.0594C23.0296 10.0158 22.6891 10.0039 19.9801 10.0039Z" fill="#FFD070" style="mix-blend-mode:color"/>
<path d="M19.9801 14.8555C17.1524 14.8555 14.8554 17.1485 14.8554 19.9802C14.8554 22.8119 17.1524 25.105 19.9801 25.105C22.8079 25.105 25.1049 22.8079 25.1049 19.9802C25.1049 17.1525 22.8079 14.8555 19.9801 14.8555ZM19.9801 23.307C18.1425 23.307 16.6534 21.8178 16.6534 19.9802C16.6534 18.1426 18.1425 16.6535 19.9801 16.6535C21.8178 16.6535 23.3069 18.1426 23.3069 19.9802C23.3069 21.8178 21.8178 23.307 19.9801 23.307Z" fill="url(#paint2_linear_131_945)"/>
<path d="M19.9801 14.8555C17.1524 14.8555 14.8554 17.1485 14.8554 19.9802C14.8554 22.8119 17.1524 25.105 19.9801 25.105C22.8079 25.105 25.1049 22.8079 25.1049 19.9802C25.1049 17.1525 22.8079 14.8555 19.9801 14.8555ZM19.9801 23.307C18.1425 23.307 16.6534 21.8178 16.6534 19.9802C16.6534 18.1426 18.1425 16.6535 19.9801 16.6535C21.8178 16.6535 23.3069 18.1426 23.3069 19.9802C23.3069 21.8178 21.8178 23.307 19.9801 23.307Z" fill="url(#paint3_linear_131_945)" style="mix-blend-mode:overlay"/>
<path d="M19.9801 14.8555C17.1524 14.8555 14.8554 17.1485 14.8554 19.9802C14.8554 22.8119 17.1524 25.105 19.9801 25.105C22.8079 25.105 25.1049 22.8079 25.1049 19.9802C25.1049 17.1525 22.8079 14.8555 19.9801 14.8555ZM19.9801 23.307C18.1425 23.307 16.6534 21.8178 16.6534 19.9802C16.6534 18.1426 18.1425 16.6535 19.9801 16.6535C21.8178 16.6535 23.3069 18.1426 23.3069 19.9802C23.3069 21.8178 21.8178 23.307 19.9801 23.307Z" fill="#FFD070" style="mix-blend-mode:color"/>
<path d="M25.3069 15.8496C25.9674 15.8496 26.5029 15.3141 26.5029 14.6536C26.5029 13.993 25.9674 13.4575 25.3069 13.4575C24.6463 13.4575 24.1108 13.993 24.1108 14.6536C24.1108 15.3141 24.6463 15.8496 25.3069 15.8496Z" fill="url(#paint4_linear_131_945)"/>
<path d="M25.3069 15.8496C25.9674 15.8496 26.5029 15.3141 26.5029 14.6536C26.5029 13.993 25.9674 13.4575 25.3069 13.4575C24.6463 13.4575 24.1108 13.993 24.1108 14.6536C24.1108 15.3141 24.6463 15.8496 25.3069 15.8496Z" fill="url(#paint5_linear_131_945)" style="mix-blend-mode:overlay"/>
<path d="M25.3069 15.8496C25.9674 15.8496 26.5029 15.3141 26.5029 14.6536C26.5029 13.993 25.9674 13.4575 25.3069 13.4575C24.6463 13.4575 24.1108 13.993 24.1108 14.6536C24.1108 15.3141 24.6463 15.8496 25.3069 15.8496Z" fill="#FFD070" style="mix-blend-mode:color"/>
</g>
<defs>
<linearGradient id="paint0_linear_131_945" x1="11.1106" y1="22.4854" x2="29.7258" y2="18.1239" gradientUnits="userSpaceOnUse">
<stop stop-color="#576265"/>
<stop offset="0.172016" stop-color="#9EA1A1"/>
<stop offset="0.45741" stop-color="#848B8A"/>
<stop offset="0.553567" stop-color="#576265"/>
<stop offset="0.823421" stop-color="#576265"/>
<stop offset="0.925155" stop-color="#757A7B"/>
<stop offset="1" stop-color="#576265"/>
</linearGradient>
<linearGradient id="paint1_linear_131_945" x1="30.2515" y1="81.2558" x2="61.6221" y2="58.1751" gradientUnits="userSpaceOnUse">
<stop stop-color="white" stop-opacity="0"/>
<stop offset="1" stop-color="white"/>
</linearGradient>
<linearGradient id="paint2_linear_131_945" x1="11.1106" y1="22.4854" x2="29.7258" y2="18.1239" gradientUnits="userSpaceOnUse">
<stop stop-color="#576265"/>
<stop offset="0.172016" stop-color="#9EA1A1"/>
<stop offset="0.45741" stop-color="#848B8A"/>
<stop offset="0.553567" stop-color="#576265"/>
<stop offset="0.823421" stop-color="#576265"/>
<stop offset="0.925155" stop-color="#757A7B"/>
<stop offset="1" stop-color="#576265"/>
</linearGradient>
<linearGradient id="paint3_linear_131_945" x1="30.2515" y1="81.2558" x2="61.6221" y2="58.1751" gradientUnits="userSpaceOnUse">
<stop stop-color="white" stop-opacity="0"/>
<stop offset="1" stop-color="white"/>
</linearGradient>
<linearGradient id="paint4_linear_131_945" x1="11.1106" y1="22.4854" x2="29.7258" y2="18.1239" gradientUnits="userSpaceOnUse">
<stop stop-color="#576265"/>
<stop offset="0.172016" stop-color="#9EA1A1"/>
<stop offset="0.45741" stop-color="#848B8A"/>
<stop offset="0.553567" stop-color="#576265"/>
<stop offset="0.823421" stop-color="#576265"/>
<stop offset="0.925155" stop-color="#757A7B"/>
<stop offset="1" stop-color="#576265"/>
</linearGradient>
<linearGradient id="paint5_linear_131_945" x1="30.2515" y1="81.2558" x2="61.6221" y2="58.1751" gradientUnits="userSpaceOnUse">
<stop stop-color="white" stop-opacity="0"/>
<stop offset="1" stop-color="white"/>
</linearGradient>
<clipPath id="clip0_131_945">
<rect width="20" height="20" fill="white" transform="translate(10 10)"/>
</clipPath>
</defs>
</svg>
