<svg width="25" height="24" viewBox="0 0 25 24" fill="none" xmlns="http://www.w3.org/2000/svg">
<path d="M12.4727 0.496094H12.5273C18.8634 0.496094 24 5.63403 24 11.9723V12.027C24 18.3652 18.8634 23.5032 12.5273 23.5032H12.4727C6.13663 23.5032 1 18.3652 1 12.027V11.9723C1 5.63403 6.13663 0.496094 12.4727 0.496094Z" stroke="#2C2C2C"/>
<path d="M16.2134 4.87988H8.78711C6.73547 4.87988 5.06641 6.54944 5.06641 8.60168V15.3976C5.06641 17.4499 6.73547 19.1194 8.78711 19.1194H16.2134C18.265 19.1194 19.9341 17.4499 19.9341 15.3976V8.60168C19.9341 6.54944 18.265 4.87988 16.2134 4.87988ZM6.37895 8.60168C6.37895 7.27361 7.45943 6.19281 8.78711 6.19281H16.2134C17.5411 6.19281 18.6215 7.27361 18.6215 8.60168V15.3976C18.6215 16.7257 17.5411 17.8065 16.2134 17.8065H8.78711C7.45943 17.8065 6.37895 16.7257 6.37895 15.3976V8.60168Z" fill="#2C2C2C"/>
<path d="M12.4999 15.4609C14.4078 15.4609 15.9608 13.9083 15.9608 11.999C15.9608 10.0897 14.4086 8.53711 12.4999 8.53711C10.5912 8.53711 9.03906 10.0897 9.03906 11.999C9.03906 13.9083 10.5912 15.4609 12.4999 15.4609ZM12.4999 9.85088C13.6847 9.85088 14.6483 10.8148 14.6483 11.9999C14.6483 13.1849 13.6847 14.1488 12.4999 14.1488C11.3152 14.1488 10.3516 13.1849 10.3516 11.9999C10.3516 10.8148 11.3152 9.85088 12.4999 9.85088Z" fill="#2C2C2C"/>
<path d="M16.2821 9.096C16.7958 9.096 17.2146 8.67798 17.2146 8.16323C17.2146 7.64849 16.7967 7.23047 16.2821 7.23047C15.7675 7.23047 15.3496 7.64849 15.3496 8.16323C15.3496 8.67798 15.7675 9.096 16.2821 9.096Z" fill="#2C2C2C"/>
</svg>
