<svg width="25" height="24" viewBox="0 0 25 24" fill="none" xmlns="http://www.w3.org/2000/svg">
<path d="M12.4727 0.496094H12.5273C18.8634 0.496094 24 5.63402 24 11.9723V12.027C24 18.3652 18.8634 23.5032 12.5273 23.5032H12.4727C6.13664 23.5032 1 18.3652 1 12.027V11.9723C1 5.63402 6.13664 0.496094 12.4727 0.496094Z" stroke="#2C2C2C"/>
<path d="M6.22338 7.9758C5.90723 7.68226 5.75 7.31892 5.75 6.8866C5.75 6.45428 5.90807 6.07495 6.22338 5.78057C6.53954 5.48703 6.9465 5.33984 7.44512 5.33984C7.94373 5.33984 8.33473 5.48703 8.65004 5.78057C8.9662 6.07411 9.12342 6.44335 9.12342 6.8866C9.12342 7.32985 8.96536 7.68226 8.65004 7.9758C8.33389 8.26934 7.9328 8.41652 7.44512 8.41652C6.95743 8.41652 6.53954 8.26934 6.22338 7.9758ZM8.85773 9.65965V18.6592H6.01486V9.65965H8.85773Z" fill="#2C2C2C"/>
<path d="M18.3209 10.5484C18.9406 11.2212 19.25 12.1447 19.25 13.3206V18.5H16.5501V13.6856C16.5501 13.0926 16.3962 12.6317 16.0893 12.3037C15.7824 11.9757 15.3687 11.8108 14.8508 11.8108C14.3328 11.8108 13.9191 11.9748 13.6122 12.3037C13.3053 12.6317 13.1514 13.0926 13.1514 13.6856V18.5H10.4355V9.63411H13.1514V10.8099C13.4264 10.418 13.7972 10.1085 14.263 9.88055C14.7289 9.65261 15.2527 9.53906 15.8354 9.53906C16.873 9.53906 17.702 9.8755 18.3209 10.5475V10.5484Z" fill="#2C2C2C"/>
</svg>
