<svg width="25" height="24" viewBox="0 0 25 24" fill="none" xmlns="http://www.w3.org/2000/svg">
<path d="M12.4727 0.496094H12.5273C18.8634 0.496094 24 5.63402 24 11.9723V12.027C24 18.3652 18.8634 23.5032 12.5273 23.5032H12.4727C6.13664 23.5032 1 18.3652 1 12.027V11.9723C1 5.63402 6.13664 0.496094 12.4727 0.496094Z" stroke="#2C2C2C"/>
<path d="M8.77721 9.9215C9.90129 12.988 11.065 14.2115 14.0254 15.5146L12.7425 17.3165C9.34294 15.6889 7.64971 12.9454 6.85225 10.8044L8.77721 9.9215Z" fill="#2C2C2C"/>
<path d="M9.7202 5.6878C10.3213 5.68544 10.7783 6.18559 10.7373 6.75193C10.6728 7.64316 10.7415 8.28616 10.9263 9.08319C11.0279 9.52101 10.7982 9.96567 10.4331 10.2521C9.94112 10.6381 9.56524 11.13 9.26649 11.5534C8.85242 12.1403 7.42743 12.0982 7.11229 11.4588C6.46464 10.1448 6.02572 7.72394 6.97148 6.08838C7.12004 5.83147 7.41916 5.69679 7.72911 5.69558L9.7202 5.6878Z" fill="#2C2C2C"/>
<path d="M18.8432 15.4111C18.9179 14.8478 18.4471 14.3592 17.8469 14.3295C16.9023 14.2828 16.2346 14.1411 15.419 13.8719C14.971 13.7241 14.476 13.886 14.131 14.1938C13.6661 14.6086 13.1038 14.9019 12.6228 15.1311C11.956 15.4487 11.829 16.7898 12.4632 17.1621C13.7665 17.9274 16.2585 18.63 18.0915 17.94C18.3794 17.8316 18.557 17.5674 18.5955 17.2769L18.8432 15.4111Z" fill="#2C2C2C"/>
</svg>
