<svg width="25" height="24" viewBox="0 0 25 24" fill="none" xmlns="http://www.w3.org/2000/svg">
<path d="M12.4727 0.496094H12.5273C18.8634 0.496094 24 5.63402 24 11.9723V12.027C24 18.3652 18.8634 23.5032 12.5273 23.5032H12.4727C6.13663 23.5032 1 18.3652 1 12.027V11.9723C1 5.63402 6.13663 0.496094 12.4727 0.496094Z" stroke="#2C2C2C"/>
<path d="M18.301 8.68142V10.9481C17.9049 10.9094 17.3903 10.8195 16.8211 10.6109C16.0778 10.3384 15.5245 9.96575 15.1621 9.67726V14.2586L15.1529 14.2443C15.1588 14.3352 15.1621 14.4277 15.1621 14.5211C15.1621 16.7962 13.3114 18.6483 11.0361 18.6483C8.76084 18.6483 6.91016 16.7962 6.91016 14.5211C6.91016 12.2459 8.76084 10.393 11.0361 10.393C11.259 10.393 11.4776 10.4107 11.6912 10.4452V12.6791C11.486 12.6059 11.2657 12.5664 11.0361 12.5664C9.95903 12.5664 9.08204 13.4428 9.08204 14.5211C9.08204 15.5993 9.95903 16.4757 11.0361 16.4757C12.1133 16.4757 12.9902 15.5985 12.9902 14.5211C12.9902 14.4807 12.9894 14.4403 12.9869 14.3999V5.49707H15.2513C15.2597 5.68884 15.2672 5.88229 15.2756 6.07406C15.2908 6.4517 15.4253 6.81421 15.6599 7.11111C15.9349 7.46016 16.341 7.86556 16.9111 8.18938C17.445 8.49133 17.9461 8.6217 18.301 8.6831V8.68142Z" fill="#2C2C2C"/>
</svg>
